<?xml version="1.0" encoding="UTF-8"?>
<svg width="16px" height="16px" viewBox="0 0 16 16" version="1.1" xmlns="http://www.w3.org/2000/svg" xmlns:xlink="http://www.w3.org/1999/xlink">
    <!-- Generator: Sketch 42 (36781) - http://www.bohemiancoding.com/sketch -->
    <title>safari-favicon-16</title>
    <desc>Created with Sketch.</desc>
    <defs></defs>
    <g id="favicons" stroke="none" stroke-width="1" fill="none" fill-rule="evenodd">
        <g id="safari-favicon-16" fill="#000000">
            <path d="M8,16 C3.581722,16 0,12.418278 0,8 C0,3.581722 3.581722,0 8,0 C12.418278,0 16,3.581722 16,8 C16,12.418278 12.418278,16 8,16 Z M8,9 C8.55228475,9 9,8.55228475 9,8 C9,7.44771525 8.55228475,7 8,7 C7.44771525,7 7,7.44771525 7,8 C7,8.55228475 7.44771525,9 8,9 Z M5,7 C6.1045695,7 7,6.1045695 7,5 C7,3.8954305 6.1045695,3 5,3 C3.8954305,3 3,3.8954305 3,5 C3,6.1045695 3.8954305,7 5,7 Z M11,7 C12.1045695,7 13,6.1045695 13,5 C13,3.8954305 12.1045695,3 11,3 C9.8954305,3 9,3.8954305 9,5 C9,6.1045695 9.8954305,7 11,7 Z M11,13 C12.1045695,13 13,12.1045695 13,11 C13,9.8954305 12.1045695,9 11,9 C9.8954305,9 9,9.8954305 9,11 C9,12.1045695 9.8954305,13 11,13 Z M5,13 C6.1045695,13 7,12.1045695 7,11 C7,9.8954305 6.1045695,9 5,9 C3.8954305,9 3,9.8954305 3,11 C3,12.1045695 3.8954305,13 5,13 Z" id="reel" transform="translate(8.000000, 8.000000) rotate(-70.000000) translate(-8.000000, -8.000000) "></path>
        </g>
    </g>
</svg>